<?xml version="1.0" encoding="utf-8"?><svg xmlns="http://www.w3.org/2000/svg" xmlns:xlink="http://www.w3.org/1999/xlink"><symbol viewBox="0 0 24 24" id="cog" xmlns="http://www.w3.org/2000/svg"><path d="M19.917 10.62a.328.328 0 00-.219-.13l-1.906-.292a6.276 6.276 0 00-.427-1.02c.125-.174.312-.42.562-.735.25-.316.427-.547.531-.693a.4.4 0 00.083-.24.335.335 0 00-.073-.229c-.25-.354-.822-.944-1.718-1.77a.402.402 0 00-.26-.105.338.338 0 00-.25.094l-1.48 1.115a6.436 6.436 0 00-.937-.386l-.292-1.917a.309.309 0 00-.12-.223.393.393 0 00-.255-.089h-2.312c-.202 0-.327.097-.375.292-.09.347-.191.993-.302 1.937a5.96 5.96 0 00-.948.396L7.78 5.51a.443.443 0 00-.27-.104c-.153 0-.481.249-.985.745-.503.497-.845.87-1.026 1.12a.439.439 0 00-.094.24c0 .083.035.166.104.25.466.562.837 1.041 1.115 1.437-.174.32-.309.639-.406.958l-1.938.292a.314.314 0 00-.198.135.4.4 0 00-.083.24v2.313c0 .09.028.171.083.244a.328.328 0 00.22.13l1.905.282c.098.34.24.684.428 1.03-.125.175-.313.42-.563.735-.25.316-.427.547-.531.693a.402.402 0 00-.01.479c.27.375.843.959 1.718 1.75a.359.359 0 00.26.115.375.375 0 00.26-.094l1.47-1.115c.285.146.597.275.937.386l.292 1.917a.31.31 0 00.12.224c.073.059.158.088.255.088h2.313c.201 0 .326-.097.375-.292.09-.347.19-.992.302-1.937.326-.104.642-.236.948-.396l1.437 1.125a.51.51 0 00.271.094c.153 0 .48-.247.979-.74.5-.493.844-.868 1.031-1.125a.348.348 0 00.094-.24.4.4 0 00-.104-.26c-.5-.611-.872-1.09-1.115-1.437a6.67 6.67 0 00.407-.948l1.927-.292a.317.317 0 00.208-.135.402.402 0 00.083-.24v-2.312a.391.391 0 00-.083-.245zm-6.031 3.265c-.521.521-1.15.782-1.886.782a2.57 2.57 0 01-1.885-.782A2.57 2.57 0 019.334 12c0-.736.26-1.364.78-1.885A2.57 2.57 0 0112 9.333c.736 0 1.365.26 1.886.782.52.52.78 1.149.78 1.885s-.26 1.365-.78 1.885z"/></symbol></svg>